<svg version="1.1" id="Layer_1" xmlns="http://www.w3.org/2000/svg" xmlns:xlink="http://www.w3.org/1999/xlink" x="0px" y="0px"
	 width="100%" viewBox="0 0 816 398" enable-background="new 0 0 816 398" xml:space="preserve">
<path fill="#FFFFFF" opacity="1.000000" stroke="none" 
	d="
M764.000000,399.000000 
	C559.312439,399.000000 354.624878,399.000000 149.468658,398.531342 
	C149.000000,390.106445 149.000000,382.150177 149.000000,373.876373 
	C146.724472,374.064667 144.803253,373.830780 143.192627,374.430695 
	C138.410553,376.212036 134.976379,376.044373 132.909088,370.357758 
	C131.332367,366.020599 128.693954,362.063965 126.473175,357.967682 
	C123.574043,352.620178 120.620941,347.301910 117.726463,342.035492 
	C115.565895,342.572052 113.771286,343.017731 111.824738,343.501129 
	C113.913933,354.030945 116.085716,364.293488 117.851715,374.625458 
	C118.112282,376.149902 116.819603,379.082153 115.608345,379.495422 
	C112.354012,380.605804 108.754471,380.704407 105.511871,381.172943 
	C100.271614,352.816925 95.165710,325.187927 90.014679,297.314728 
	C96.837051,296.046173 103.607590,294.787292 111.426010,293.333557 
	C82.914131,293.333557 55.518322,293.333557 28.115417,293.333557 
	C28.115417,299.978760 28.115417,306.289917 28.115417,312.565186 
	C36.882904,315.230560 43.426048,322.827240 43.900887,331.049469 
	C43.953014,331.952148 43.110588,333.538239 42.379940,333.747131 
	C38.848225,334.756836 35.212845,335.403992 31.965601,336.103912 
	C30.402582,332.863312 29.519775,329.608643 27.545544,327.278809 
	C24.695133,323.914978 21.184771,324.680176 17.452059,326.800293 
	C12.610455,329.550232 13.674651,333.796844 14.377010,337.578094 
	C15.486745,343.552521 17.463442,349.362579 18.990396,355.263641 
	C21.041319,363.189545 22.878487,371.173462 25.073576,379.058350 
	C26.255547,383.304077 31.002697,386.647705 34.108692,385.973267 
	C38.858166,384.941895 41.381542,382.096680 40.886803,376.845459 
	C40.381641,371.483582 38.966675,366.207428 37.907265,360.670319 
	C35.020554,361.486908 32.891174,362.294830 30.690254,362.622986 
	C29.628780,362.781311 27.649910,362.303162 27.429174,361.655548 
	C26.307634,358.365143 25.625935,354.924835 24.788116,351.528656 
	C32.689777,349.573242 40.110592,347.736847 47.515877,345.904297 
	C51.475994,361.366455 55.329792,376.413483 59.122581,391.222321 
	C54.507877,394.191132 51.158234,392.855072 48.648159,389.194122 
	C46.617123,391.470123 44.764149,393.533936 42.926334,395.611176 
	C41.937469,396.728882 40.974594,397.869629 39.999996,399.000000 
	C34.311958,399.000000 28.623919,399.000000 22.755306,398.709961 
	C16.214073,393.874878 13.189214,387.339935 11.446912,379.985413 
	C9.906920,373.484924 8.224582,367.018158 6.605094,360.536469 
	C6.403396,360.576172 6.201698,360.615845 6.000000,360.655548 
	C6.000000,373.437012 6.000000,386.218506 6.000000,399.000000 
	C4.349008,399.000000 2.698015,399.000000 1.000000,399.000000 
	C1.000000,385.312469 1.000000,371.624878 1.410604,357.468658 
	C3.117703,357.000000 4.414197,357.000000 5.637819,357.000000 
	C4.701036,352.911072 3.917187,349.159393 2.920695,345.465088 
	C2.754476,344.848846 1.663601,344.482056 0.999999,344.000000 
	C1.000000,337.312347 1.000000,330.624725 1.364069,323.467133 
	C6.114180,318.186768 10.639523,313.576508 17.359005,312.000000 
	C11.906003,312.000000 6.453001,312.000000 1.000000,312.000000 
	C1.000000,208.420929 1.000000,104.841858 1.000000,1.000000 
	C69.687340,1.000000 138.375015,1.000000 207.531342,1.468657 
	C208.000000,28.084890 208.000000,54.232464 208.000000,80.380043 
	C210.809464,62.480469 217.950439,46.599312 229.610306,33.044369 
	C242.972778,17.510084 259.446075,6.648437 280.028687,2.891091 
	C280.453369,2.813562 280.680634,1.654503 281.000000,1.000002 
	C293.687561,1.000000 306.375122,1.000000 319.234070,1.342244 
	C322.389374,2.714713 325.365479,3.768093 328.358398,4.771359 
	C346.322021,10.793029 361.796753,20.574135 373.187225,35.877666 
	C378.026337,42.379192 381.687958,49.757133 386.029205,56.977142 
	C382.845764,58.272011 380.697388,59.145866 378.559174,60.015587 
	C361.855774,22.173912 324.368195,6.141299 299.258575,8.542235 
	C299.262207,14.959340 299.262207,21.374836 299.262207,27.776726 
	C332.131439,28.683109 354.286346,49.343452 359.982025,68.649261 
	C357.859741,69.521416 355.719421,70.400955 353.600922,71.271545 
	C342.581818,46.277641 316.491455,33.559975 299.257202,36.543236 
	C299.260437,42.961990 299.260437,49.379173 299.260437,55.760952 
	C314.049652,56.296638 325.466858,62.164875 332.602631,75.204544 
	C333.667389,77.150223 335.636902,79.291359 331.782837,81.143509 
	C328.578217,82.683540 327.513031,81.883789 325.906982,79.001839 
	C320.169098,68.705513 311.039551,63.739830 299.361572,63.050701 
	C299.361572,73.844505 299.361572,84.391273 299.361572,95.131744 
	C330.691406,95.131744 361.660004,95.131744 392.985687,95.131744 
	C387.936798,145.383682 360.568146,174.815491 311.903442,185.000000 
	C313.077545,185.000000 314.653473,185.060898 316.223572,184.990936 
	C343.840637,183.760345 371.439178,186.043518 399.157745,183.455032 
	C422.742798,181.252563 446.696716,183.000183 471.176178,183.000183 
	C465.945953,173.990097 460.928680,165.432114 455.992859,156.827408 
	C442.962555,134.111526 430.040802,111.333054 416.938751,88.658714 
	C402.703339,64.023056 388.209412,39.536156 374.091034,14.834158 
	C371.683380,10.621640 367.671814,6.705335 369.000000,1.000000 
	C518.246765,1.000000 667.493530,1.000000 817.000000,1.000000 
	C817.000000,103.020744 817.000000,205.041718 816.531372,307.531342 
	C806.209961,308.000000 796.357178,308.000000 786.504456,308.000000 
	C786.476685,308.236176 786.448853,308.472321 786.421082,308.708496 
	C796.614075,311.139008 806.807007,313.569489 817.000000,316.000000 
	C817.000000,318.700012 817.000000,321.400024 816.652649,324.252014 
	C814.797302,327.911438 812.808289,328.738434 808.895020,327.192871 
	C804.462097,325.442108 799.360291,325.424683 794.855408,323.803162 
	C791.517456,322.601685 791.475342,323.820282 790.915405,326.397858 
	C789.523804,332.803467 787.713806,339.118164 785.987610,345.795135 
	C790.731689,346.881195 795.447876,347.849518 800.100769,349.061127 
	C803.860535,350.040192 808.572571,350.623810 804.366211,357.000000 
	C809.086365,357.000000 813.043152,357.000000 817.000000,357.000000 
	C817.000000,370.880066 817.000000,384.760101 817.000000,399.000000 
	C813.327271,399.000000 809.642822,399.000000 805.479187,398.531342 
	C805.000000,384.888672 805.000000,371.714661 805.000000,358.540619 
	C804.781616,358.526245 804.563232,358.511841 804.344849,358.497467 
	C804.100037,359.667297 803.855225,360.837128 803.513794,362.468506 
	C797.865051,361.146240 792.425903,360.283203 787.289673,358.531982 
	C783.637634,357.286804 782.682312,358.644073 781.978271,361.674408 
	C780.431458,368.331757 778.754700,374.958923 777.127014,381.615051 
	C783.836426,383.103973 790.416931,384.558350 796.994263,386.026733 
	C799.794922,386.651978 800.511047,388.573669 799.955811,391.110840 
	C799.376831,393.756531 798.657837,396.371582 798.000000,399.000000 
	C795.299988,399.000000 792.599976,399.000000 789.747314,398.656677 
	C781.175781,395.889526 772.756958,393.465698 764.000000,390.944550 
	C764.000000,394.070679 764.000000,396.535339 764.000000,399.000000 
M297.776978,357.000000 
	C363.386932,357.000000 428.996857,357.000000 494.802979,357.000000 
	C494.802979,328.569763 494.802979,300.538849 494.802979,272.507965 
	C494.640198,272.480377 494.477386,272.452759 494.314606,272.425171 
	C487.738647,299.199738 481.162720,325.974304 474.525238,352.999512 
	C471.561554,352.999512 468.532623,353.308105 465.620026,352.860168 
	C464.302216,352.657471 462.393097,351.113312 462.154358,349.901489 
	C460.246826,340.219391 458.701782,330.466400 456.994415,320.744171 
	C454.756744,308.002289 452.444427,295.273468 450.221680,282.529022 
	C449.343689,277.495026 448.620148,272.434082 447.797424,267.201843 
	C452.883240,267.201843 457.323944,267.201843 461.964478,267.201843 
	C464.416992,285.256683 466.846497,303.141846 469.275970,321.027039 
	C469.660492,321.026855 470.045013,321.026642 470.429565,321.026459 
	C474.073425,303.362823 477.717285,285.699219 481.265350,268.500000 
	C497.410370,268.500000 513.083130,268.500000 528.722290,268.500000 
	C528.722290,249.042694 528.722290,229.638901 528.722290,210.266388 
	C421.716339,210.266388 314.988281,210.266388 207.862457,210.266388 
	C207.862457,229.936050 207.862457,249.342819 207.862457,269.140961 
	C199.058228,269.140961 190.645935,269.140961 182.229309,269.140961 
	C182.229309,273.644592 182.229309,277.745575 182.229309,281.964661 
	C194.589142,280.440765 206.710342,278.946289 218.854340,277.449005 
	C219.313522,281.799561 219.733856,285.781921 220.175308,289.964447 
	C213.158386,290.694550 206.838333,291.345551 200.519943,292.012268 
	C197.359436,292.345734 196.575912,294.280304 197.021439,297.134949 
	C197.721512,301.620483 198.578506,306.099426 198.937866,310.615448 
	C199.342575,315.701233 200.712631,316.729736 205.692184,315.757263 
	C210.588577,314.801056 215.585388,314.359100 220.636292,313.678253 
	C221.162354,318.153809 221.606201,321.929901 222.039993,325.620453 
	C214.696121,326.550873 207.924759,327.408722 201.275833,328.251099 
	C202.321854,336.594513 203.346375,344.766510 204.346222,352.741669 
	C211.426529,351.813232 218.341248,350.919495 225.251785,349.994415 
	C228.326294,349.582855 228.716309,351.784241 228.964462,353.908112 
	C229.259735,356.435150 229.304260,358.991516 229.493927,362.141602 
	C218.435455,363.539856 207.015701,364.983795 195.595963,366.427734 
	C195.609863,366.518280 195.623779,366.608856 195.637695,366.699402 
	C223.374649,366.699402 251.111588,366.699402 278.869507,366.699402 
	C278.869507,363.768555 278.869507,361.139160 278.869507,358.256653 
	C277.588165,358.083069 276.368652,357.917847 275.009064,357.733673 
	C272.914398,329.043762 270.841187,300.648071 268.779175,272.405365 
	C281.668457,271.543732 293.723785,270.737854 306.000000,269.917206 
	C306.000000,272.749146 305.736481,274.938873 306.052216,277.041595 
	C306.824890,282.187805 304.125519,283.057587 299.784424,283.083282 
	C294.256500,283.115967 288.732117,283.753021 282.857483,284.153290 
	C283.362335,292.247009 283.841980,299.936218 284.328369,307.734192 
	C290.948456,307.282227 297.541565,306.832092 305.324341,306.300751 
	C305.605652,309.823181 305.916046,313.709869 306.253479,317.934845 
	C298.764771,318.648590 291.880554,319.304718 285.337494,319.928314 
	C286.015533,328.349884 286.640503,336.111847 287.291595,344.198669 
	C295.336975,343.727325 303.022491,343.277100 310.927185,342.814026 
	C311.387756,347.177460 311.789032,350.979492 312.225433,355.114227 
	C305.454041,355.563995 299.453796,355.962555 293.453552,356.361115 
	C293.455872,356.500519 293.458160,356.639893 293.460480,356.779266 
	C294.592102,356.852844 295.723694,356.926422 297.776978,357.000000 
M693.036377,295.779938 
	C693.521362,293.923523 694.006287,292.067108 694.571289,289.904388 
	C698.580017,290.581940 702.625854,291.265778 706.769348,291.966095 
	C706.769348,284.839203 706.769348,278.083801 706.769348,271.265839 
	C651.860229,271.265839 597.182190,271.265839 542.504150,271.265839 
	C542.497070,271.511383 542.489929,271.756897 542.482849,272.002441 
	C546.223511,272.002441 549.964111,272.002441 554.537598,272.002441 
	C553.663086,281.150391 552.708069,289.750000 552.050476,298.372345 
	C551.237854,309.027496 550.758057,319.707886 549.968323,330.365051 
	C549.485718,336.877991 548.338867,343.358490 548.167236,349.871399 
	C548.063599,353.802368 545.978821,356.990753 545.355591,360.367340 
	C544.145020,366.925690 545.001282,373.865509 545.001282,380.795288 
	C601.788818,380.795288 658.145752,380.795288 714.502747,380.795288 
	C714.508484,380.697174 714.514282,380.599060 714.520020,380.500946 
	C702.671814,378.302826 690.823669,376.104706 679.086731,373.927216 
	C679.790222,370.455658 680.455566,367.481934 680.989197,364.484741 
	C683.143738,352.385071 685.248413,340.276489 687.389526,328.174377 
	C689.247925,317.670715 691.130615,307.171326 693.036377,295.779938 
M291.000000,16.582249 
	C291.000000,14.111666 291.000000,11.641083 291.000000,8.631330 
	C284.001038,10.272750 277.510590,11.794912 271.139374,13.289107 
	C271.139374,66.709953 271.139374,119.670868 271.139374,173.009125 
	C277.644043,174.500381 284.097931,175.979996 291.000000,177.562378 
	C291.000000,123.490921 291.000000,70.525002 291.000000,16.582249 
M523.400208,183.000000 
	C525.173157,183.000000 526.946106,183.000000 528.785767,183.000000 
	C528.785767,150.164429 528.785767,117.833176 528.785767,84.499084 
	C509.586212,117.781937 490.874695,150.218826 471.964539,183.000000 
	C489.163513,183.000000 505.793396,183.000000 523.400208,183.000000 
M243.000015,148.369873 
	C243.225525,150.951492 242.447983,154.726273 243.851715,155.906357 
	C249.652908,160.783249 256.114685,164.874329 262.738220,169.538956 
	C262.738220,117.970917 262.738220,67.588951 262.738220,15.938636 
	C257.317719,19.827038 252.881104,23.564796 247.924911,26.391584 
	C243.867477,28.705755 242.890900,31.581594 242.909637,35.978699 
	C243.068039,73.120506 243.000000,110.263275 243.000015,148.369873 
M444.031647,89.335808 
	C439.504059,81.205254 435.005280,73.058472 430.443024,64.947426 
	C420.130341,46.612907 409.804199,28.285849 399.401123,10.002646 
	C398.891388,9.106812 397.613373,8.118402 396.664642,8.088944 
	C390.939575,7.911177 385.206207,8.000542 379.165192,8.000542 
	C384.028320,16.521856 388.613312,24.588495 393.229767,32.637108 
	C400.023193,44.481258 406.808929,56.329979 413.652649,68.145058 
	C423.071442,84.405769 432.556702,100.627975 441.984711,116.883385 
	C450.040802,130.773346 457.987366,144.727539 466.148956,158.555008 
	C467.745148,161.259308 470.105194,163.512772 472.112915,165.974182 
	C473.986237,163.212067 475.802948,160.409286 477.747955,157.698593 
	C479.937317,154.647293 479.795593,151.760818 477.947174,148.525986 
	C471.493927,137.232422 465.268280,125.808945 458.832275,114.505386 
	C454.141907,106.267731 449.256409,98.141197 444.031647,89.335808 
M422.033203,34.365662 
	C442.913849,71.134827 463.794525,107.903999 484.894043,145.058578 
	C488.137756,139.263031 491.347015,133.711792 494.327545,128.040375 
	C494.884491,126.980591 495.062042,125.127846 494.505798,124.167465 
	C488.226257,113.325600 481.751007,102.597321 475.364288,91.817192 
	C466.687317,77.171326 458.000153,62.531235 449.394989,47.843147 
	C441.685883,34.684525 434.081970,21.464281 426.379791,8.181787 
	C420.472687,8.181787 414.364807,8.181787 407.413300,8.181787 
	C412.451477,16.984783 417.208069,25.295773 422.033203,34.365662 
M212.958023,122.631317 
	C211.303604,116.633385 209.649200,110.635452 208.331238,105.857330 
	C208.331238,131.295685 208.331238,158.083252 208.331238,185.000000 
	C221.963837,185.000000 235.265518,185.000000 248.567215,185.000000 
	C261.820129,185.000000 275.073029,185.000000 288.325928,185.000000 
	C255.542404,180.514954 224.823685,157.738602 212.958023,122.631317 
M318.500427,124.000000 
	C337.298767,124.000000 356.097290,124.035522 374.895111,123.938011 
	C376.542267,123.929466 379.352142,123.420158 379.641357,122.512375 
	C381.616119,116.314697 383.060730,109.948097 384.760864,103.305664 
	C355.516907,103.305664 327.348724,103.305664 299.296631,103.305664 
	C299.296631,110.346924 299.296631,117.079193 299.296631,124.000000 
	C305.561493,124.000000 311.531067,124.000000 318.500427,124.000000 
M499.969299,90.670013 
	C495.987091,83.865356 491.949097,77.092636 488.034973,70.249062 
	C481.098206,58.120583 474.188995,45.975800 467.360046,33.786423 
	C462.599701,25.289469 457.992615,16.706652 453.295105,8.122021 
	C447.408386,8.122021 441.468933,8.122021 435.242004,8.122021 
	C456.912201,44.947121 478.454346,81.554657 500.041840,118.239243 
	C501.497223,116.050095 502.712677,114.524666 503.599274,112.827438 
	C505.679749,108.844673 509.506958,105.196938 505.109955,100.165375 
	C502.934509,97.676025 501.698456,94.365791 499.969299,90.670013 
M564.968750,22.337008 
	C564.309326,23.262987 563.573608,24.144375 563.002197,25.121809 
	C556.679626,35.936890 550.324463,46.733578 544.097412,57.603642 
	C539.335938,65.915535 534.745361,74.325340 530.060669,82.724030 
	C544.272766,82.724030 558.018860,82.724030 571.581665,82.724030 
	C571.581665,58.999313 571.581665,35.552616 571.581665,12.105920 
	C571.313171,12.026217 571.044678,11.946512 570.776245,11.866809 
	C568.863159,15.104691 566.950134,18.342571 564.968750,22.337008 
M220.032288,64.731873 
	C216.900970,76.817551 214.066574,88.747986 215.771072,101.606026 
	C217.326447,113.339020 220.875732,124.157494 226.251984,134.462463 
	C228.385254,138.551422 231.553391,142.100494 234.667221,146.481918 
	C234.667221,110.053741 234.667221,74.748512 234.667221,39.443279 
	C234.262650,39.294292 233.858063,39.145306 233.453491,38.996319 
	C229.120148,47.342770 224.786819,55.689217 220.032288,64.731873 
M526.502197,42.998714 
	C519.450745,55.065540 512.358276,67.108887 505.414612,79.237396 
	C504.757690,80.384834 504.458221,82.334297 504.978088,83.453850 
	C507.131317,88.090843 509.663269,92.551956 512.281189,97.503281 
	C529.685486,67.369644 546.749207,37.825649 563.917053,8.101377 
	C557.761902,8.101377 552.109436,8.101377 546.862000,8.101377 
	C540.132935,19.700285 533.548889,31.049170 526.502197,42.998714 
M300.714417,131.003891 
	C300.143494,131.766586 299.100769,132.515579 299.078156,133.294189 
	C298.929779,138.403137 299.001678,143.518494 299.001678,148.999603 
	C320.169769,148.999603 340.927917,149.010529 361.685913,148.962082 
	C362.574097,148.960007 363.844330,148.685547 364.288269,148.070190 
	C368.142853,142.727676 371.849030,137.278061 376.194672,131.000275 
	C350.262329,131.000275 325.971680,131.000275 300.714417,131.003891 
M496.040192,68.441330 
	C496.976929,70.021561 497.913696,71.601791 499.297852,73.936752 
	C512.420532,51.597771 525.137878,29.948797 538.031372,8.000054 
	C532.296875,8.000054 527.138489,7.922442 521.986206,8.064522 
	C520.936035,8.093482 519.497314,8.659729 518.931824,9.465472 
	C508.487244,24.346252 498.148193,39.301105 487.810394,54.206493 
	C490.633362,58.867596 493.301208,63.272491 496.040192,68.441330 
M129.599594,293.000000 
	C126.903679,293.000000 124.207764,293.000000 121.511848,293.000000 
	C134.384644,297.211945 135.112350,308.605652 136.799164,318.823334 
	C137.916031,325.588684 136.436920,332.399048 129.480606,337.228363 
	C135.722610,348.372345 141.996613,359.573425 148.739090,371.610901 
	C148.739090,344.729797 148.739090,318.999573 148.739090,293.000000 
	C142.512238,293.000000 136.542389,293.000000 129.599594,293.000000 
M299.000000,168.481171 
	C299.000000,171.597229 299.000000,174.713287 299.000000,178.040482 
	C320.200104,177.200043 338.768951,171.008423 355.011200,157.284546 
	C336.035431,157.284546 317.627625,157.284546 299.000000,157.284546 
	C299.000000,160.877548 299.000000,164.188019 299.000000,168.481171 
M508.611786,10.907393 
	C508.958527,10.037178 509.305237,9.166963 509.770111,8.000256 
	C503.535004,8.000256 497.585083,7.900192 491.643890,8.083120 
	C490.428528,8.120541 488.780243,8.905620 488.124237,9.879819 
	C484.081177,15.884285 480.229736,22.019619 476.409271,28.170286 
	C475.779510,29.184135 474.947113,30.843006 475.348083,31.600405 
	C477.854218,36.334286 480.684021,40.896820 483.821045,46.219208 
	C492.393646,33.908127 500.219391,22.669613 508.611786,10.907393 
M707.000000,335.499878 
	C707.000000,322.873505 707.000000,310.247162 707.000000,297.620789 
	C706.806946,297.622162 706.613953,297.623535 706.420898,297.624908 
	C702.428894,319.623047 698.436829,341.621155 694.374573,364.006256 
	C702.406555,365.417297 710.533997,366.845123 718.700134,368.279755 
	C718.700134,363.983490 718.700134,360.578613 718.700134,356.797546 
	C714.662903,356.797546 710.921936,356.797546 707.000000,356.797546 
	C707.000000,349.771515 707.000000,343.135681 707.000000,335.499878 
M182.000000,356.478333 
	C182.000000,359.913574 182.000000,363.348785 182.000000,366.788055 
	C185.971466,366.788055 189.402954,366.788055 192.858353,366.788055 
	C189.414520,339.280548 185.997238,311.985107 182.579956,284.689667 
	C182.386642,284.703339 182.193314,284.717010 182.000000,284.730682 
	C182.000000,308.314728 182.000000,331.898804 182.000000,356.478333 
M112.674728,305.040894 
	C110.236732,305.631042 107.798737,306.221191 105.356277,306.812439 
	C106.279671,312.365814 106.970543,317.577820 108.067932,322.702728 
	C108.674042,325.533356 109.183167,329.640686 111.096008,330.687561 
	C115.830414,333.278778 124.682579,326.288391 123.908936,320.920380 
	C123.368454,317.170135 122.109962,313.502777 120.954086,309.867767 
	C119.831413,306.337158 117.253059,304.706909 112.674728,305.040894 
M777.962646,324.281433 
	C779.145874,318.909790 780.329041,313.538177 781.471313,308.352417 
	C777.531738,308.352417 773.808960,308.352417 770.284546,308.352417 
	C770.284546,323.262848 770.284546,337.819763 770.284546,353.827972 
	C772.929626,343.259857 775.214783,334.129974 777.962646,324.281433 
M539.036194,295.832397 
	C539.831909,287.615814 540.627686,279.399200 541.451538,270.892395 
	C538.629700,271.042450 536.891907,271.134857 535.677124,271.199463 
	C535.677124,292.399017 535.677124,313.168274 535.677124,333.937561 
	C536.031738,333.939087 536.386414,333.940613 536.741028,333.942169 
	C537.494873,321.553436 538.248718,309.164734 539.036194,295.832397 
M467.030914,17.347296 
	C468.195435,19.166115 469.359985,20.984934 470.639008,22.982582 
	C473.808746,17.955429 476.839142,13.149228 480.029388,8.089550 
	C473.767334,8.089550 468.145569,8.089550 462.075775,8.089550 
	C463.802338,11.093587 465.382812,13.843446 467.030914,17.347296 
M768.522705,360.979797 
	C768.685242,359.768829 768.847778,358.557892 769.027893,357.216309 
	C766.491699,357.216309 764.413269,357.216309 762.190552,357.216309 
	C762.190552,366.781067 762.190552,376.129089 762.190552,385.477112 
	C762.403503,385.512299 762.616455,385.547455 762.829468,385.582611 
	C764.566406,377.628723 766.303406,369.674866 768.522705,360.979797 
z"/>
<path fill="#000000" opacity="1.000000" stroke="none" 
	d="
M368.531342,1.000000 
	C367.671814,6.705335 371.683380,10.621640 374.091034,14.834158 
	C388.209412,39.536156 402.703339,64.023056 416.938751,88.658714 
	C430.040802,111.333054 442.962555,134.111526 455.992859,156.827408 
	C460.928680,165.432114 465.945953,173.990097 471.176178,183.000183 
	C446.696716,183.000183 422.742798,181.252563 399.157745,183.455032 
	C371.439178,186.043518 343.840637,183.760345 316.223572,184.990936 
	C314.653473,185.060898 313.077545,185.000000 311.903442,185.000000 
	C360.568146,174.815491 387.936798,145.383682 392.985687,95.131744 
	C361.660004,95.131744 330.691406,95.131744 299.361572,95.131744 
	C299.361572,84.391273 299.361572,73.844505 299.361572,63.050701 
	C311.039551,63.739830 320.169098,68.705513 325.906982,79.001839 
	C327.513031,81.883789 328.578217,82.683540 331.782837,81.143509 
	C335.636902,79.291359 333.667389,77.150223 332.602631,75.204544 
	C325.466858,62.164875 314.049652,56.296638 299.260437,55.760952 
	C299.260437,49.379173 299.260437,42.961990 299.257202,36.543236 
	C316.491455,33.559975 342.581818,46.277641 353.600922,71.271545 
	C355.719421,70.400955 357.859741,69.521416 359.982025,68.649261 
	C354.286346,49.343452 332.131439,28.683109 299.262207,27.776726 
	C299.262207,21.374836 299.262207,14.959340 299.258575,8.542235 
	C324.368195,6.141299 361.855774,22.173912 378.559174,60.015587 
	C380.697388,59.145866 382.845764,58.272011 386.029205,56.977142 
	C381.687958,49.757133 378.026337,42.379192 373.187225,35.877666 
	C361.796753,20.574135 346.322021,10.793029 328.358398,4.771359 
	C325.365479,3.768093 322.389374,2.714713 319.702759,1.342244 
	C336.020905,1.000000 352.041779,1.000000 368.531342,1.000000 
z"/>
<path fill="#000000" opacity="1.000000" stroke="none" 
	d="
M40.468655,399.000000 
	C40.974594,397.869629 41.937469,396.728882 42.926334,395.611176 
	C44.764149,393.533936 46.617123,391.470123 48.648159,389.194122 
	C51.158234,392.855072 54.507877,394.191132 59.122581,391.222321 
	C55.329792,376.413483 51.475994,361.366455 47.515877,345.904297 
	C40.110592,347.736847 32.689777,349.573242 24.788116,351.528656 
	C25.625935,354.924835 26.307634,358.365143 27.429174,361.655548 
	C27.649910,362.303162 29.628780,362.781311 30.690254,362.622986 
	C32.891174,362.294830 35.020554,361.486908 37.907265,360.670319 
	C38.966675,366.207428 40.381641,371.483582 40.886803,376.845459 
	C41.381542,382.096680 38.858166,384.941895 34.108692,385.973267 
	C31.002697,386.647705 26.255547,383.304077 25.073576,379.058350 
	C22.878487,371.173462 21.041319,363.189545 18.990396,355.263641 
	C17.463442,349.362579 15.486745,343.552521 14.377010,337.578094 
	C13.674651,333.796844 12.610455,329.550232 17.452059,326.800293 
	C21.184771,324.680176 24.695133,323.914978 27.545544,327.278809 
	C29.519775,329.608643 30.402582,332.863312 31.965601,336.103912 
	C35.212845,335.403992 38.848225,334.756836 42.379940,333.747131 
	C43.110588,333.538239 43.953014,331.952148 43.900887,331.049469 
	C43.426048,322.827240 36.882904,315.230560 28.115417,312.565186 
	C28.115417,306.289917 28.115417,299.978760 28.115417,293.333557 
	C55.518322,293.333557 82.914131,293.333557 111.426010,293.333557 
	C103.607590,294.787292 96.837051,296.046173 90.014679,297.314728 
	C95.165710,325.187927 100.271614,352.816925 105.511871,381.172943 
	C108.754471,380.704407 112.354012,380.605804 115.608345,379.495422 
	C116.819603,379.082153 118.112282,376.149902 117.851715,374.625458 
	C116.085716,364.293488 113.913933,354.030945 111.824738,343.501129 
	C113.771286,343.017731 115.565895,342.572052 117.726463,342.035492 
	C120.620941,347.301910 123.574043,352.620178 126.473175,357.967682 
	C128.693954,362.063965 131.332367,366.020599 132.909088,370.357758 
	C134.976379,376.044373 138.410553,376.212036 143.192627,374.430695 
	C144.803253,373.830780 146.724472,374.064667 149.000000,373.876373 
	C149.000000,382.150177 149.000000,390.106445 149.000000,398.531342 
	C112.979103,399.000000 76.958214,399.000000 40.468655,399.000000 
z"/>
<path fill="#000000" opacity="1.000000" stroke="none" 
	d="
M280.531342,1.000002 
	C280.680634,1.654503 280.453369,2.813562 280.028687,2.891091 
	C259.446075,6.648437 242.972778,17.510084 229.610306,33.044369 
	C217.950439,46.599312 210.809464,62.480469 208.000000,80.380043 
	C208.000000,54.232464 208.000000,28.084890 208.000000,1.468657 
	C232.020889,1.000000 256.041779,1.000000 280.531342,1.000002 
z"/>
<path fill="#000000" opacity="1.000000" stroke="none" 
	d="
M817.000000,356.531342 
	C813.043152,357.000000 809.086365,357.000000 804.366211,357.000000 
	C808.572571,350.623810 803.860535,350.040192 800.100769,349.061127 
	C795.447876,347.849518 790.731689,346.881195 785.987610,345.795135 
	C787.713806,339.118164 789.523804,332.803467 790.915405,326.397858 
	C791.475342,323.820282 791.517456,322.601685 794.855408,323.803162 
	C799.360291,325.424683 804.462097,325.442108 808.895020,327.192871 
	C812.808289,328.738434 814.797302,327.911438 816.652649,324.701996 
	C817.000000,335.354218 817.000000,345.708466 817.000000,356.531342 
z"/>
<path fill="#000000" opacity="1.000000" stroke="none" 
	d="
M798.437500,399.000000 
	C798.657837,396.371582 799.376831,393.756531 799.955811,391.110840 
	C800.511047,388.573669 799.794922,386.651978 796.994263,386.026733 
	C790.416931,384.558350 783.836426,383.103973 777.127014,381.615051 
	C778.754700,374.958923 780.431458,368.331757 781.978271,361.674408 
	C782.682312,358.644073 783.637634,357.286804 787.289673,358.531982 
	C792.425903,360.283203 797.865051,361.146240 803.513794,362.468506 
	C803.855225,360.837128 804.100037,359.667297 804.344849,358.497467 
	C804.563232,358.511841 804.781616,358.526245 805.000000,358.540619 
	C805.000000,371.714661 805.000000,384.888672 805.000000,398.531342 
	C802.958313,399.000000 800.916687,399.000000 798.437500,399.000000 
z"/>
<path fill="#000000" opacity="1.000000" stroke="none" 
	d="
M6.466861,399.000000 
	C6.000000,386.218506 6.000000,373.437012 6.000000,360.655548 
	C6.201698,360.615845 6.403396,360.576172 6.605094,360.536469 
	C8.224582,367.018158 9.906920,373.484924 11.446912,379.985413 
	C13.189214,387.339935 16.214073,393.874878 22.287365,398.709961 
	C16.977907,399.000000 11.955815,399.000000 6.466861,399.000000 
z"/>
<path fill="#000000" opacity="1.000000" stroke="none" 
	d="
M817.000000,315.555847 
	C806.807007,313.569489 796.614075,311.139008 786.421082,308.708496 
	C786.448853,308.472321 786.476685,308.236176 786.504456,308.000000 
	C796.357178,308.000000 806.209961,308.000000 816.531372,308.000000 
	C817.000000,310.370575 817.000000,312.741119 817.000000,315.555847 
z"/>
<path fill="#000000" opacity="1.000000" stroke="none" 
	d="
M764.468628,399.000000 
	C764.000000,396.535339 764.000000,394.070679 764.000000,390.944550 
	C772.756958,393.465698 781.175781,395.889526 789.297302,398.656677 
	C780.979065,399.000000 772.958191,399.000000 764.468628,399.000000 
z"/>
<path fill="#000000" opacity="1.000000" stroke="none" 
	d="
M1.000000,312.458069 
	C6.453001,312.000000 11.906003,312.000000 17.359005,312.000000 
	C10.639523,313.576508 6.114180,318.186768 1.364069,322.998596 
	C1.000000,319.638702 1.000000,316.277435 1.000000,312.458069 
z"/>
<path fill="#000000" opacity="1.000000" stroke="none" 
	d="
M0.999999,344.463196 
	C1.663601,344.482056 2.754476,344.848846 2.920695,345.465088 
	C3.917187,349.159393 4.701036,352.911072 5.637819,357.000000 
	C4.414197,357.000000 3.117703,357.000000 1.410604,357.000000 
	C1.000000,352.975464 1.000000,348.950897 0.999999,344.463196 
z"/>
<path fill="#000000" opacity="1.000000" stroke="none" 
	d="
M297.316162,357.000000 
	C295.723694,356.926422 294.592102,356.852844 293.460480,356.779266 
	C293.458160,356.639893 293.455872,356.500519 293.453552,356.361115 
	C299.453796,355.962555 305.454041,355.563995 312.225433,355.114227 
	C311.789032,350.979492 311.387756,347.177460 310.927185,342.814026 
	C303.022491,343.277100 295.336975,343.727325 287.291595,344.198669 
	C286.640503,336.111847 286.015533,328.349884 285.337494,319.928314 
	C291.880554,319.304718 298.764771,318.648590 306.253479,317.934845 
	C305.916046,313.709869 305.605652,309.823181 305.324341,306.300751 
	C297.541565,306.832092 290.948456,307.282227 284.328369,307.734192 
	C283.841980,299.936218 283.362335,292.247009 282.857483,284.153290 
	C288.732117,283.753021 294.256500,283.115967 299.784424,283.083282 
	C304.125519,283.057587 306.824890,282.187805 306.052216,277.041595 
	C305.736481,274.938873 306.000000,272.749146 306.000000,269.917206 
	C293.723785,270.737854 281.668457,271.543732 268.779175,272.405365 
	C270.841187,300.648071 272.914398,329.043762 275.009064,357.733673 
	C276.368652,357.917847 277.588165,358.083069 278.869507,358.256653 
	C278.869507,361.139160 278.869507,363.768555 278.869507,366.699402 
	C251.111588,366.699402 223.374649,366.699402 195.637695,366.699402 
	C195.623779,366.608856 195.609863,366.518280 195.595963,366.427734 
	C207.015701,364.983795 218.435455,363.539856 229.493927,362.141602 
	C229.304260,358.991516 229.259735,356.435150 228.964462,353.908112 
	C228.716309,351.784241 228.326294,349.582855 225.251785,349.994415 
	C218.341248,350.919495 211.426529,351.813232 204.346222,352.741669 
	C203.346375,344.766510 202.321854,336.594513 201.275833,328.251099 
	C207.924759,327.408722 214.696121,326.550873 222.039993,325.620453 
	C221.606201,321.929901 221.162354,318.153809 220.636292,313.678253 
	C215.585388,314.359100 210.588577,314.801056 205.692184,315.757263 
	C200.712631,316.729736 199.342575,315.701233 198.937866,310.615448 
	C198.578506,306.099426 197.721512,301.620483 197.021439,297.134949 
	C196.575912,294.280304 197.359436,292.345734 200.519943,292.012268 
	C206.838333,291.345551 213.158386,290.694550 220.175308,289.964447 
	C219.733856,285.781921 219.313522,281.799561 218.854340,277.449005 
	C206.710342,278.946289 194.589142,280.440765 182.229309,281.964661 
	C182.229309,277.745575 182.229309,273.644592 182.229309,269.140961 
	C190.645935,269.140961 199.058228,269.140961 207.862457,269.140961 
	C207.862457,249.342819 207.862457,229.936050 207.862457,210.266388 
	C314.988281,210.266388 421.716339,210.266388 528.722290,210.266388 
	C528.722290,229.638901 528.722290,249.042694 528.722290,268.500000 
	C513.083130,268.500000 497.410370,268.500000 481.265350,268.500000 
	C477.717285,285.699219 474.073425,303.362823 470.429565,321.026459 
	C470.045013,321.026642 469.660492,321.026855 469.275970,321.027039 
	C466.846497,303.141846 464.416992,285.256683 461.964478,267.201843 
	C457.323944,267.201843 452.883240,267.201843 447.797424,267.201843 
	C448.620148,272.434082 449.343689,277.495026 450.221680,282.529022 
	C452.444427,295.273468 454.756744,308.002289 456.994415,320.744171 
	C458.701782,330.466400 460.246826,340.219391 462.154358,349.901489 
	C462.393097,351.113312 464.302216,352.657471 465.620026,352.860168 
	C468.532623,353.308105 471.561554,352.999512 474.525238,352.999512 
	C481.162720,325.974304 487.738647,299.199738 494.314606,272.425171 
	C494.477386,272.452759 494.640198,272.480377 494.802979,272.507965 
	C494.802979,300.538849 494.802979,328.569763 494.802979,357.000000 
	C428.996857,357.000000 363.386932,357.000000 297.316162,357.000000 
M375.037659,283.399292 
	C373.751221,280.117523 371.963318,276.935059 371.289337,273.531982 
	C370.116241,267.609009 366.664307,266.590637 361.268860,266.830261 
	C357.124084,267.014374 355.811218,268.067261 355.917572,272.274506 
	C356.433502,292.684021 356.691315,313.100342 356.985535,333.515045 
	C357.078217,339.945648 357.000000,346.378754 357.000000,352.705109 
	C361.661072,352.705109 365.734039,352.705109 369.946350,352.705109 
	C369.946350,336.773773 369.946350,321.136108 369.946350,304.480988 
	C370.712891,305.763153 371.055786,306.195038 371.252045,306.685577 
	C376.844604,320.664215 382.390533,334.661682 388.055786,348.610718 
	C388.576843,349.893677 389.762695,351.746399 390.778473,351.840698 
	C394.805511,352.214508 398.887665,351.994415 403.110016,351.994415 
	C402.651093,349.538422 402.071442,347.801270 402.038849,346.053925 
	C401.645721,324.974426 401.317261,303.893616 401.011414,282.812592 
	C400.935181,277.559784 401.000000,272.304901 401.000000,267.356842 
	C396.217346,267.356842 392.143494,267.356842 388.500000,267.356842 
	C388.500000,283.955750 388.500000,300.199097 388.500000,316.891541 
	C384.077515,305.679626 379.807068,294.853088 375.037659,283.399292 
z"/>
<path fill="#000000" opacity="1.000000" stroke="none" 
	d="
M693.019470,296.224976 
	C691.130615,307.171326 689.247925,317.670715 687.389526,328.174377 
	C685.248413,340.276489 683.143738,352.385071 680.989197,364.484741 
	C680.455566,367.481934 679.790222,370.455658 679.086731,373.927216 
	C690.823669,376.104706 702.671814,378.302826 714.520020,380.500946 
	C714.514282,380.599060 714.508484,380.697174 714.502747,380.795288 
	C658.145752,380.795288 601.788818,380.795288 545.001282,380.795288 
	C545.001282,373.865509 544.145020,366.925690 545.355591,360.367340 
	C545.978821,356.990753 548.063599,353.802368 548.167236,349.871399 
	C548.338867,343.358490 549.485718,336.877991 549.968323,330.365051 
	C550.758057,319.707886 551.237854,309.027496 552.050476,298.372345 
	C552.708069,289.750000 553.663086,281.150391 554.537598,272.002441 
	C549.964111,272.002441 546.223511,272.002441 542.482849,272.002441 
	C542.489929,271.756897 542.497070,271.511383 542.504150,271.265839 
	C597.182190,271.265839 651.860229,271.265839 706.769348,271.265839 
	C706.769348,278.083801 706.769348,284.839203 706.769348,291.966095 
	C702.625854,291.265778 698.580017,290.581940 694.571289,289.904388 
	C694.006287,292.067108 693.521362,293.923523 693.019470,296.224976 
M612.002686,338.710785 
	C612.345337,335.796570 612.655701,332.878113 613.036499,329.968872 
	C614.344360,319.975067 615.674438,309.984100 617.000854,299.992737 
	C617.912109,293.128235 618.831482,286.264832 619.765747,279.262085 
	C616.872375,278.840149 613.990784,278.425690 611.111145,277.998596 
	C607.266113,277.428345 605.711731,278.828186 605.892395,282.934723 
	C606.056152,286.658936 605.437988,290.440338 604.940430,294.166626 
	C603.349670,306.081909 601.575012,317.972900 600.024048,329.893127 
	C598.662048,340.360626 597.505859,350.854828 596.156494,362.197083 
	C608.849915,363.817078 621.749451,365.463318 634.601257,367.103516 
	C635.002502,363.924652 635.085449,361.284882 635.711792,358.781036 
	C636.601196,355.225677 635.409241,354.156891 631.849854,353.909332 
	C624.900024,353.426056 617.986877,352.414856 610.831787,351.596313 
	C611.238770,347.427338 611.619446,343.527679 612.002686,338.710785 
z"/>
<path fill="#000000" opacity="1.000000" stroke="none" 
	d="
M291.000000,17.070665 
	C291.000000,70.525002 291.000000,123.490921 291.000000,177.562378 
	C284.097931,175.979996 277.644043,174.500381 271.139374,173.009125 
	C271.139374,119.670868 271.139374,66.709953 271.139374,13.289107 
	C277.510590,11.794912 284.001038,10.272750 291.000000,8.631330 
	C291.000000,11.641083 291.000000,14.111666 291.000000,17.070665 
z"/>
<path fill="#000000" opacity="1.000000" stroke="none" 
	d="
M522.911743,183.000000 
	C505.793396,183.000000 489.163513,183.000000 471.964539,183.000000 
	C490.874695,150.218826 509.586212,117.781937 528.785767,84.499084 
	C528.785767,117.833176 528.785767,150.164429 528.785767,183.000000 
	C526.946106,183.000000 525.173157,183.000000 522.911743,183.000000 
z"/>
<path fill="#000000" opacity="1.000000" stroke="none" 
	d="
M243.000000,147.887817 
	C243.000000,110.263275 243.068039,73.120506 242.909637,35.978699 
	C242.890900,31.581594 243.867477,28.705755 247.924911,26.391584 
	C252.881104,23.564796 257.317719,19.827038 262.738220,15.938636 
	C262.738220,67.588951 262.738220,117.970917 262.738220,169.538956 
	C256.114685,164.874329 249.652908,160.783249 243.851715,155.906357 
	C242.447983,154.726273 243.225525,150.951492 243.000000,147.887817 
z"/>
<path fill="#000000" opacity="1.000000" stroke="none" 
	d="
M444.244781,89.650467 
	C449.256409,98.141197 454.141907,106.267731 458.832275,114.505386 
	C465.268280,125.808945 471.493927,137.232422 477.947174,148.525986 
	C479.795593,151.760818 479.937317,154.647293 477.747955,157.698593 
	C475.802948,160.409286 473.986237,163.212067 472.112915,165.974182 
	C470.105194,163.512772 467.745148,161.259308 466.148956,158.555008 
	C457.987366,144.727539 450.040802,130.773346 441.984711,116.883385 
	C432.556702,100.627975 423.071442,84.405769 413.652649,68.145058 
	C406.808929,56.329979 400.023193,44.481258 393.229767,32.637108 
	C388.613312,24.588495 384.028320,16.521856 379.165192,8.000542 
	C385.206207,8.000542 390.939575,7.911177 396.664642,8.088944 
	C397.613373,8.118402 398.891388,9.106812 399.401123,10.002646 
	C409.804199,28.285849 420.130341,46.612907 430.443024,64.947426 
	C435.005280,73.058472 439.504059,81.205254 444.244781,89.650467 
z"/>
<path fill="#000000" opacity="1.000000" stroke="none" 
	d="
M421.998901,33.986214 
	C417.208069,25.295773 412.451477,16.984783 407.413300,8.181787 
	C414.364807,8.181787 420.472687,8.181787 426.379791,8.181787 
	C434.081970,21.464281 441.685883,34.684525 449.394989,47.843147 
	C458.000153,62.531235 466.687317,77.171326 475.364288,91.817192 
	C481.751007,102.597321 488.226257,113.325600 494.505798,124.167465 
	C495.062042,125.127846 494.884491,126.980591 494.327545,128.040375 
	C491.347015,133.711792 488.137756,139.263031 484.894043,145.058578 
	C463.794525,107.903999 442.913849,71.134827 421.998901,33.986214 
z"/>
<path fill="#000000" opacity="1.000000" stroke="none" 
	d="
M212.978546,123.040947 
	C224.823685,157.738602 255.542404,180.514954 288.325928,185.000000 
	C275.073029,185.000000 261.820129,185.000000 248.567215,185.000000 
	C235.265518,185.000000 221.963837,185.000000 208.331238,185.000000 
	C208.331238,158.083252 208.331238,131.295685 208.331238,105.857330 
	C209.649200,110.635452 211.303604,116.633385 212.978546,123.040947 
z"/>
<path fill="#000000" opacity="1.000000" stroke="none" 
	d="
M318.000549,124.000000 
	C311.531067,124.000000 305.561493,124.000000 299.296631,124.000000 
	C299.296631,117.079193 299.296631,110.346924 299.296631,103.305664 
	C327.348724,103.305664 355.516907,103.305664 384.760864,103.305664 
	C383.060730,109.948097 381.616119,116.314697 379.641357,122.512375 
	C379.352142,123.420158 376.542267,123.929466 374.895111,123.938011 
	C356.097290,124.035522 337.298767,124.000000 318.000549,124.000000 
z"/>
<path fill="#000000" opacity="1.000000" stroke="none" 
	d="
M500.003357,91.048485 
	C501.698456,94.365791 502.934509,97.676025 505.109955,100.165375 
	C509.506958,105.196938 505.679749,108.844673 503.599274,112.827438 
	C502.712677,114.524666 501.497223,116.050095 500.041840,118.239243 
	C478.454346,81.554657 456.912201,44.947121 435.242004,8.122021 
	C441.468933,8.122021 447.408386,8.122021 453.295105,8.122021 
	C457.992615,16.706652 462.599701,25.289469 467.360046,33.786423 
	C474.188995,45.975800 481.098206,58.120583 488.034973,70.249062 
	C491.949097,77.092636 495.987091,83.865356 500.003357,91.048485 
z"/>
<path fill="#000000" opacity="1.000000" stroke="none" 
	d="
M565.002930,21.958731 
	C566.950134,18.342571 568.863159,15.104691 570.776245,11.866809 
	C571.044678,11.946512 571.313171,12.026217 571.581665,12.105920 
	C571.581665,35.552616 571.581665,58.999313 571.581665,82.724030 
	C558.018860,82.724030 544.272766,82.724030 530.060669,82.724030 
	C534.745361,74.325340 539.335938,65.915535 544.097412,57.603642 
	C550.324463,46.733578 556.679626,35.936890 563.002197,25.121809 
	C563.573608,24.144375 564.309326,23.262987 565.002930,21.958731 
z"/>
<path fill="#000000" opacity="1.000000" stroke="none" 
	d="
M220.242889,64.383774 
	C224.786819,55.689217 229.120148,47.342770 233.453491,38.996319 
	C233.858063,39.145306 234.262650,39.294292 234.667221,39.443279 
	C234.667221,74.748512 234.667221,110.053741 234.667221,146.481918 
	C231.553391,142.100494 228.385254,138.551422 226.251984,134.462463 
	C220.875732,124.157494 217.326447,113.339020 215.771072,101.606026 
	C214.066574,88.747986 216.900970,76.817551 220.242889,64.383774 
z"/>
<path fill="#000000" opacity="1.000000" stroke="none" 
	d="
M526.733521,42.698387 
	C533.548889,31.049170 540.132935,19.700285 546.862000,8.101377 
	C552.109436,8.101377 557.761902,8.101377 563.917053,8.101377 
	C546.749207,37.825649 529.685486,67.369644 512.281189,97.503281 
	C509.663269,92.551956 507.131317,88.090843 504.978088,83.453850 
	C504.458221,82.334297 504.757690,80.384834 505.414612,79.237396 
	C512.358276,67.108887 519.450745,55.065540 526.733521,42.698387 
z"/>
<path fill="#000000" opacity="1.000000" stroke="none" 
	d="
M301.197723,131.002075 
	C325.971680,131.000275 350.262329,131.000275 376.194672,131.000275 
	C371.849030,137.278061 368.142853,142.727676 364.288269,148.070190 
	C363.844330,148.685547 362.574097,148.960007 361.685913,148.962082 
	C340.927917,149.010529 320.169769,148.999603 299.001678,148.999603 
	C299.001678,143.518494 298.929779,138.403137 299.078156,133.294189 
	C299.100769,132.515579 300.143494,131.766586 301.197723,131.002075 
z"/>
<path fill="#000000" opacity="1.000000" stroke="none" 
	d="
M496.004608,68.059357 
	C493.301208,63.272491 490.633362,58.867596 487.810394,54.206493 
	C498.148193,39.301105 508.487244,24.346252 518.931824,9.465472 
	C519.497314,8.659729 520.936035,8.093482 521.986206,8.064522 
	C527.138489,7.922442 532.296875,8.000054 538.031372,8.000054 
	C525.137878,29.948797 512.420532,51.597771 499.297852,73.936752 
	C497.913696,71.601791 496.976929,70.021561 496.004608,68.059357 
z"/>
<path fill="#000000" opacity="1.000000" stroke="none" 
	d="
M130.086075,293.000000 
	C136.542389,293.000000 142.512238,293.000000 148.739090,293.000000 
	C148.739090,318.999573 148.739090,344.729797 148.739090,371.610901 
	C141.996613,359.573425 135.722610,348.372345 129.480606,337.228363 
	C136.436920,332.399048 137.916031,325.588684 136.799164,318.823334 
	C135.112350,308.605652 134.384644,297.211945 121.511848,293.000000 
	C124.207764,293.000000 126.903679,293.000000 130.086075,293.000000 
z"/>
<path fill="#000000" opacity="1.000000" stroke="none" 
	d="
M299.000000,167.989838 
	C299.000000,164.188019 299.000000,160.877548 299.000000,157.284546 
	C317.627625,157.284546 336.035431,157.284546 355.011200,157.284546 
	C338.768951,171.008423 320.200104,177.200043 299.000000,178.040482 
	C299.000000,174.713287 299.000000,171.597229 299.000000,167.989838 
z"/>
<path fill="#000000" opacity="1.000000" stroke="none" 
	d="
M508.328461,11.169246 
	C500.219391,22.669613 492.393646,33.908127 483.821045,46.219208 
	C480.684021,40.896820 477.854218,36.334286 475.348083,31.600405 
	C474.947113,30.843006 475.779510,29.184135 476.409271,28.170286 
	C480.229736,22.019619 484.081177,15.884285 488.124237,9.879819 
	C488.780243,8.905620 490.428528,8.120541 491.643890,8.083120 
	C497.585083,7.900192 503.535004,8.000256 509.770111,8.000256 
	C509.305237,9.166963 508.958527,10.037178 508.328461,11.169246 
z"/>
<path fill="#000000" opacity="1.000000" stroke="none" 
	d="
M707.000000,335.999847 
	C707.000000,343.135681 707.000000,349.771515 707.000000,356.797546 
	C710.921936,356.797546 714.662903,356.797546 718.700134,356.797546 
	C718.700134,360.578613 718.700134,363.983490 718.700134,368.279755 
	C710.533997,366.845123 702.406555,365.417297 694.374573,364.006256 
	C698.436829,341.621155 702.428894,319.623047 706.420898,297.624908 
	C706.613953,297.623535 706.806946,297.622162 707.000000,297.620789 
	C707.000000,310.247162 707.000000,322.873505 707.000000,335.999847 
z"/>
<path fill="#000000" opacity="1.000000" stroke="none" 
	d="
M182.000000,355.980591 
	C182.000000,331.898804 182.000000,308.314728 182.000000,284.730682 
	C182.193314,284.717010 182.386642,284.703339 182.579956,284.689667 
	C185.997238,311.985107 189.414520,339.280548 192.858353,366.788055 
	C189.402954,366.788055 185.971466,366.788055 182.000000,366.788055 
	C182.000000,363.348785 182.000000,359.913574 182.000000,355.980591 
z"/>
<path fill="#000000" opacity="1.000000" stroke="none" 
	d="
M113.097122,305.022034 
	C117.253059,304.706909 119.831413,306.337158 120.954086,309.867767 
	C122.109962,313.502777 123.368454,317.170135 123.908936,320.920380 
	C124.682579,326.288391 115.830414,333.278778 111.096008,330.687561 
	C109.183167,329.640686 108.674042,325.533356 108.067932,322.702728 
	C106.970543,317.577820 106.279671,312.365814 105.356277,306.812439 
	C107.798737,306.221191 110.236732,305.631042 113.097122,305.022034 
z"/>
<path fill="#000000" opacity="1.000000" stroke="none" 
	d="
M777.731323,324.640747 
	C775.214783,334.129974 772.929626,343.259857 770.284546,353.827972 
	C770.284546,337.819763 770.284546,323.262848 770.284546,308.352417 
	C773.808960,308.352417 777.531738,308.352417 781.471313,308.352417 
	C780.329041,313.538177 779.145874,318.909790 777.731323,324.640747 
z"/>
<path fill="#000000" opacity="1.000000" stroke="none" 
	d="
M539.019409,296.304199 
	C538.248718,309.164734 537.494873,321.553436 536.741028,333.942169 
	C536.386414,333.940613 536.031738,333.939087 535.677124,333.937561 
	C535.677124,313.168274 535.677124,292.399017 535.677124,271.199463 
	C536.891907,271.134857 538.629700,271.042450 541.451538,270.892395 
	C540.627686,279.399200 539.831909,287.615814 539.019409,296.304199 
z"/>
<path fill="#000000" opacity="1.000000" stroke="none" 
	d="
M466.997070,16.970299 
	C465.382812,13.843446 463.802338,11.093587 462.075775,8.089550 
	C468.145569,8.089550 473.767334,8.089550 480.029388,8.089550 
	C476.839142,13.149228 473.808746,17.955429 470.639008,22.982582 
	C469.359985,20.984934 468.195435,19.166115 466.997070,16.970299 
z"/>
<path fill="#000000" opacity="1.000000" stroke="none" 
	d="
M768.281555,361.350403 
	C766.303406,369.674866 764.566406,377.628723 762.829468,385.582611 
	C762.616455,385.547455 762.403503,385.512299 762.190552,385.477112 
	C762.190552,376.129089 762.190552,366.781067 762.190552,357.216309 
	C764.413269,357.216309 766.491699,357.216309 769.027893,357.216309 
	C768.847778,358.557892 768.685242,359.768829 768.281555,361.350403 
z"/>
<path fill="#FFFFFF" opacity="1.000000" stroke="none" 
	d="
M375.287109,283.712921 
	C379.807068,294.853088 384.077515,305.679626 388.500000,316.891541 
	C388.500000,300.199097 388.500000,283.955750 388.500000,267.356842 
	C392.143494,267.356842 396.217346,267.356842 401.000000,267.356842 
	C401.000000,272.304901 400.935181,277.559784 401.011414,282.812592 
	C401.317261,303.893616 401.645721,324.974426 402.038849,346.053925 
	C402.071442,347.801270 402.651093,349.538422 403.110016,351.994415 
	C398.887665,351.994415 394.805511,352.214508 390.778473,351.840698 
	C389.762695,351.746399 388.576843,349.893677 388.055786,348.610718 
	C382.390533,334.661682 376.844604,320.664215 371.252045,306.685577 
	C371.055786,306.195038 370.712891,305.763153 369.946350,304.480988 
	C369.946350,321.136108 369.946350,336.773773 369.946350,352.705109 
	C365.734039,352.705109 361.661072,352.705109 357.000000,352.705109 
	C357.000000,346.378754 357.078217,339.945648 356.985535,333.515045 
	C356.691315,313.100342 356.433502,292.684021 355.917572,272.274506 
	C355.811218,268.067261 357.124084,267.014374 361.268860,266.830261 
	C366.664307,266.590637 370.116241,267.609009 371.289337,273.531982 
	C371.963318,276.935059 373.751221,280.117523 375.287109,283.712921 
z"/>
<path fill="#FFFFFF" opacity="1.000000" stroke="none" 
	d="
M612.001465,339.169403 
	C611.619446,343.527679 611.238770,347.427338 610.831787,351.596313 
	C617.986877,352.414856 624.900024,353.426056 631.849854,353.909332 
	C635.409241,354.156891 636.601196,355.225677 635.711792,358.781036 
	C635.085449,361.284882 635.002502,363.924652 634.601257,367.103516 
	C621.749451,365.463318 608.849915,363.817078 596.156494,362.197083 
	C597.505859,350.854828 598.662048,340.360626 600.024048,329.893127 
	C601.575012,317.972900 603.349670,306.081909 604.940430,294.166626 
	C605.437988,290.440338 606.056152,286.658936 605.892395,282.934723 
	C605.711731,278.828186 607.266113,277.428345 611.111145,277.998596 
	C613.990784,278.425690 616.872375,278.840149 619.765747,279.262085 
	C618.831482,286.264832 617.912109,293.128235 617.000854,299.992737 
	C615.674438,309.984100 614.344360,319.975067 613.036499,329.968872 
	C612.655701,332.878113 612.345337,335.796570 612.001465,339.169403 
z"/>
</svg>